<?xml version="1.0" encoding="utf-8"?>
<svg version="1.0" xmlns="http://www.w3.org/2000/svg" width="300.000000pt" height="300.000000pt" viewBox="0 0 300.000000 300.000000" preserveAspectRatio="xMidYMid meet">
  <g transform="translate(0.000000,300.000000) scale(0.100000,-0.100000)" fill="#000000" stroke="none">
    <path d="M 2073.25 1122.35 C 2058.39 1128.35 1643.73 1315.12 1332.97 1186.03 C 1324.5 1182.51 1274.11 1132.89 1247.11 1114.89 C 1220.11 1097.89 1197.46 1062.49 1170 1038 C 1133 1005 1064.96 801.26 1113 785 C 1111.28 776.89 1167.36 734.517 1221 740 C 1235.92 741.525 1268 762 1309 800 C 1344 833 1378 860 1385 860 C 1421 860 1444 691 1410 670 C 1386 654 1400 648 1390 635 C 1379 622 1372 599 1363 589 C 1353 579 1343.17 551.542 1352.17 537.542 C 1361.17 523.542 1382.97 525.028 1377.97 544.028 C 1373.97 560.028 1380 589 1405 632 C 1425 667 1438 685 1435 673 C 1432 660 1434 642 1440 633 C 1450 617 1451 617 1447 637 C 1444 649 1445 660 1450 662 C 1461 666 1469 749 1459 755 C 1455 758 1453 767 1457 775 C 1460 783 1457 790 1451 790 C 1445 790 1443 796 1446 804 C 1449 811 1445 824 1437 831 C 1423 846 1420 852 1420 871 C 1420 877 1414 880 1407 877 C 1399 874 1387 876 1379 882 C 1368 890 1368 891 1382 886 C 1392 883 1402 885 1404 889 C 1413 902 1354 977 1331 983 C 1316 987 1322 977 1352 950 C 1376 929 1391 908 1387 904 C 1383 899 1366 910 1349 928 C 1331 947 1310 959 1297 959 L 1275 957 L 1297 953 C 1309 951 1324 943 1330 935 C 1339 924 1333 922 1298 926 L 1255 929 L 1295 921 C 1317 916 1337 913 1340 915 C 1343 917 1351 911 1359 903 C 1371 890 1370 888 1354 893 C 1344 896 1314 902 1288 906 L 1240 912 L 1256 939 C 1265 953 1289 985 1309 1008 C 1344 1048 1349 1051 1368 1039 C 1395 1022 1443 935 1438 912 C 1435 901 1427 910 1413 940 C 1400 969 1381 992 1359 1003 L 1325 1022 L 1358 995 C 1377 979 1404 939 1422 899 C 1440 862 1458 834 1464 837 C 1469 841 1471 837 1467 828 C 1464 819 1468 795 1476 774 L 1491 735 L 1484 785 C 1480 813 1476 858 1476 887 C 1475 915 1471 942 1466 947 C 1462 951 1461 938 1465 918 C 1469 898 1468 875 1463 866 C 1458 856 1454 865 1453 895 C 1452 918 1444 952 1436 968 C 1414 1010 1416 1021 1439 987 C 1452 967 1459 962 1463 972 C 1466 980 1473 974 1481 955 C 1502 906 1497 670 1473 595 C 1462 562 1448 536 1442 537 C 1435 539 1433 533 1437 523 C 1442 511 1440 509 1430 515 C 1421 520 1419 519 1424 512 C 1428 505 1427 500 1422 500 C 1416 500 1409 483 1404 463 C 1398 435 1395 431 1393 446 C 1391 458 1401 496 1415 530 C 1429 564 1440 596 1438 601 C 1436 606 1424 583 1411 550 C 1398 517 1384 490 1380 490 C 1376 490 1368 505 1362 523 C 1353 553 1352 554 1351 529 C 1350 495 1376 421 1397 398 C 1432 359 1520 317 1566 318 C 1612 319 1670 344 1707 379 C 1722 394 1742 400 1772 400 C 1818 400 1867 426 1927 483 C 1954 508 1962 511 1975 500 C 1983 493 2011 484 2036 479 C 2100 467 2134 491 2149 559 C 2173 671 2096 778 1967 811 C 1941 817 1920 825 1920 829 C 1920 832 1934 843 1950 852 C 1975 866 1980 867 1980 855 C 1980 847 1975 840 1968 840 C 1946 840 1968 829 2021 815 C 2051 807 2111 797 2155 794 C 2263 786 2285.4 800.944 2285.4 889.944 L 2264.6 950.486 L 2221 1004 C 2192 1034 2155.81 1067.89 2138.46 1078.97 C 2113.54 1094.89 2088.11 1116.35 2073.25 1122.35 Z M 1790 1192 C 1810 1183 1814 1159 1795 1166 C 1787 1170 1780 1176 1780 1181 C 1780 1185 1765 1187 1747 1185 C 1730 1183 1708 1185 1700 1190 C 1682 1201 1766 1203 1790 1192 Z M 1500 1180 C 1500 1175 1496 1170 1490 1170 C 1472 1170 1465 1167 1428 1144 C 1407 1131 1388 1120 1384 1120 C 1381 1120 1363 1103 1344 1083 C 1326 1062 1310 1050 1310 1057 C 1310 1063 1316 1070 1323 1073 C 1329 1075 1331 1081 1327 1086 C 1316 1097 1281 1050 1287 1033 C 1290 1026 1287 1020 1280 1020 C 1274 1020 1272 1016 1275 1010 C 1278 1005 1275 1000 1266 1000 C 1258 1000 1250 1003 1247 1008 C 1245 1012 1245 1009 1247 1001 C 1252 981 1221 889 1200 865 C 1175 836 1164 815 1178 824 C 1186 829 1190 824 1190 812 C 1190 782 1168 780 1136 805 C 1115 822 1123.35 830.056 1124.35 853.056 C 1125.35 892.056 1139 966 1175 1008 C 1201 1039 1320 1130 1335 1130 C 1339 1130 1354 1138 1368 1149 C 1409 1177 1500 1199 1500 1180 Z M 1896 1153 C 1909 1136 1910 1136 1903 1154 C 1900 1165 1901 1171 1906 1168 C 1911 1165 1950 1147 1992 1127 C 2107 1073 2233 979 2243 939 C 2246 928 2242 916 2232 910 C 2220 903 2219 901 2229 900 C 2239 900 2240 897 2231 887 C 2225 879 2224 869 2228 864 C 2232 860 2227 862 2218 869 C 2208 876 2200 887 2200 893 C 2200 898 2191 911 2179 921 C 2168 931 2158 945 2156 952 C 2153 974 2139 991 2129 985 C 2124 981 2120 984 2120 990 C 2120 996 2116 999 2111 996 C 2106 993 2096 998 2089 1008 C 2076 1024 2076 1024 2095 1010 C 2114 996 2114 996 2101 1013 C 2093 1023 2081 1029 2073 1026 C 2065 1023 2061 1024 2063 1028 C 2066 1032 2058 1044 2047 1055 C 2036 1066 2030 1069 2034 1063 C 2045 1043 2036 1048 2006 1075 C 1991 1089 1982 1105 1985 1110 C 1988 1116 1984 1120 1976 1120 C 1967 1120 1960 1115 1960 1109 C 1960 1101 1956 1100 1947 1109 C 1939 1115 1930 1116 1926 1112 C 1922 1108 1920 1112 1922 1120 C 1924 1128 1919 1135 1913 1136 C 1906 1137 1896 1138 1891 1139 C 1881 1140 1867 1170 1877 1170 C 1880 1170 1889 1162 1896 1153 Z M 1609 1128 C 1610 1157 1613 1160 1640 1160 C 1663 1160 1668 1156 1664 1143 C 1659 1127 1660 1127 1669 1141 C 1676 1151 1688 1156 1704 1153 C 1726 1148 1728 1145 1719 1121 C 1710 1097 1711 1096 1725 1114 C 1733 1125 1740 1137 1740 1142 C 1740 1146 1747 1147 1755 1144 C 1768 1139 1768 1135 1758 1121 C 1749 1109 1751 1110 1767 1123 C 1781 1135 1790 1138 1795 1131 C 1798 1125 1796 1120 1789 1120 C 1782 1120 1780 1117 1783 1114 C 1787 1110 1797 1113 1807 1121 C 1822 1133 1823 1133 1817 1118 C 1814 1108 1815 1100 1819 1100 C 1824 1100 1830 1105 1832 1110 C 1835 1120 1920 1091 1920 1080 C 1919 1077 1898 1060 1872 1041 C 1836 1015 1830 1013 1846 1031 C 1878 1067 1887 1088 1862 1066 C 1839 1046 1793 975 1810 985 C 1815 988 1820 989 1820 985 C 1820 977 1769 876 1761 870 C 1752 863 1747 840 1747 803 C 1746 785 1744 773 1741 776 C 1738 778 1715 708 1688 621 C 1662 533 1631 440 1619 415 C 1597 367 1546 322 1535 340 C 1527 353 1539 372 1550 365 C 1555 362 1566 373 1575 391 C 1586 411 1587 419 1579 414 C 1570 409 1569 412 1574 426 C 1591 467 1611 542 1607 547 C 1604 549 1592 520 1581 483 C 1569 446 1556 409 1553 401 C 1550 393 1552 390 1559 394 C 1566 399 1568 395 1563 384 C 1558 370 1555 371 1544 391 C 1536 406 1531 409 1530 400 C 1530 387 1529 387 1520 400 C 1507 420 1507 404 1520 380 C 1532 358 1521 347 1500 360 C 1489 367 1490 378 1507 427 C 1519 459 1538 526 1550 575 C 1562 625 1578 680 1586 698 C 1593 715 1595 730 1591 730 C 1583 730 1530 566 1530 544 C 1530 538 1517 493 1501 444 C 1479 379 1469 360 1464 374 C 1460 385 1468 421 1487 469 C 1514 535 1532 602 1546 690 C 1550 713 1549 713 1540 695 C 1532 680 1531 686 1536 720 C 1540 755 1549 916 1560 1144 C 1560 1148 1567 1150 1575 1146 C 1583 1143 1591 1146 1591 1153 C 1592 1160 1596 1149 1600 1130 L 1607 1095 L 1609 1128 Z M 1549 1118 C 1548 1100 1545 1074 1541 1060 C 1534 1037 1533 1038 1526 1073 C 1522 1094 1515 1108 1511 1105 C 1506 1102 1511 1073 1521 1039 C 1539 981 1548 841 1534 827 C 1530 824 1526 774 1525 718 C 1521 606 1509 536 1483 486 C 1474 469 1461 437 1454 415 C 1443 381 1441 379 1441 402 C 1440 416 1454 462 1470 504 C 1487 545 1503 594 1506 612 C 1512 646 1458 508 1436 431 C 1425 391 1423 389 1417 411 C 1412 428 1421 456 1445 506 C 1524 665 1533 905 1465 1005 C 1439 1045 1432 1066 1451 1054 C 1459 1050 1458 1054 1450 1069 C 1444 1081 1441 1099 1443 1108 C 1446 1123 1448 1122 1454 1105 C 1458 1094 1470 1067 1482 1045 C 1494 1024 1509 970 1516 925 L 1530 845 L 1524 924 C 1520 983 1513 1014 1494 1045 C 1468 1090 1463 1116 1482 1104 C 1489 1100 1490 1101 1486 1109 C 1482 1115 1474 1118 1469 1115 C 1464 1111 1460 1113 1460 1118 C 1460 1133 1493 1142 1500 1130 C 1505 1122 1509 1124 1513 1134 C 1525 1164 1550 1152 1549 1118 Z M 1430 1101 C 1430 1096 1433 1083 1437 1073 C 1443 1057 1441 1057 1420 1075 C 1395 1096 1398 1088 1437 1031 C 1468 986 1466 972 1434 1007 C 1420 1022 1412 1028 1416 1020 C 1421 1012 1410 1016 1393 1030 L 1362 1055 L 1388 1083 C 1414 1110 1430 1117 1430 1101 Z M 1953 1056 C 1954 1051 1942 1042 1925 1037 C 1881 1023 1870 1012 1843 950 C 1829 920 1807 880 1793 862 C 1780 845 1772 825 1776 818 C 1780 811 1779 810 1772 814 C 1765 818 1760 815 1760 805 C 1760 781 1775 795 1800 842 C 1812 866 1835 904 1851 928 C 1866 951 1877 976 1874 984 C 1871 992 1877 1003 1889 1009 C 1921 1026 1927 1021 1900 1000 C 1886 989 1881 980 1889 980 C 1900 980 1900 977 1890 965 C 1884 957 1881 947 1884 942 C 1887 937 1880 921 1867 908 C 1840 878 1825 855 1804 814 C 1791 790 1790 778 1799 764 C 1809 748 1810 749 1805 775 L 1800 805 L 1812 778 C 1825 748 1840 741 1840 764 C 1840 772 1849 795 1861 814 C 1873 834 1879 850 1876 850 C 1860 850 1958 927 1994 943 C 2027 957 2029 960 2005 955 C 1989 952 1963 940 1948 930 C 1914 905 1902 904 1923 928 C 1933 938 1937 950 1933 955 C 1928 959 1930 960 1936 957 C 1951 948 2016 975 2002 984 C 1996 987 1971 981 1946 970 C 1921 960 1900 955 1900 961 C 1900 966 1912 975 1928 981 C 1980 1002 2000 1013 1995 1018 C 1993 1021 1985 1018 1978 1013 C 1971 1007 1952 1000 1935 996 L 1905 989 L 1939 1019 C 1958 1036 1977 1050 1980 1050 C 1984 1050 2000 1037 2016 1020 C 2032 1004 2051 990 2059 990 C 2066 990 2083 979 2096 965 C 2109 951 2124 940 2130 940 C 2139 940 2144 926 2141 908 C 2141 904 2146 903 2154 906 C 2172 913 2187 892 2195 848 C 2205 797 2189 800 2162 853 C 2150 876 2140 891 2140 886 C 2140 881 2133 883 2125 890 C 2117 897 2113 906 2116 911 C 2128 931 2032 919 1985 895 C 1928 866 1915 868 1962 899 C 1980 910 1991 920 1987 920 C 1973 920 1918 878 1924 873 C 1927 870 1917 851 1901 831 C 1859 777 1831 718 1789 588 C 1768 523 1744 457 1735 441 C 1721 413 1660 361 1660 376 C 1660 380 1651 374 1639 361 C 1627 349 1615 341 1612 345 C 1608 348 1611 355 1618 359 C 1625 363 1630 371 1628 376 C 1627 381 1642 437 1663 500 C 1683 563 1707 641 1716 673 C 1742 767 1742 733 1715 629 C 1689 526 1662 441 1650 425 C 1640 410 1630 380 1636 380 C 1660 380 1748 677 1755 780 C 1757 818 1770 858 1794 908 C 1814 948 1827 987 1824 993 C 1820 1000 1820 1002 1825 998 C 1829 994 1853 1009 1878 1031 C 1921 1068 1948 1077 1953 1056 Z M 1917 933 C 1909 923 1901 911 1899 905 C 1894 877 1887 868 1880 880 C 1875 889 1870 885 1865 870 C 1861 857 1851 831 1843 811 C 1831 782 1826 779 1819 792 C 1809 810 1818 843 1830 835 C 1835 832 1841 838 1845 849 C 1854 878 1909 950 1922 950 C 1929 950 1927 943 1917 933 Z M 2097 903 C 2093 900 2106 886 2124 874 C 2157 851 2178 815 2166 803 C 2163 800 2154 802 2147 808 C 2139 815 2130 817 2127 813 C 2123 810 2120 815 2120 825 C 2120 843 2119 843 2105 824 C 2091 806 2091 806 2089 835 C 2088 864 2088 864 2081 840 L 2074 815 L 2063 845 C 2057 862 2051 868 2051 859 C 2050 836 2020 826 2019 848 C 2018 864 2017 864 2013 848 C 2006 819 1982 826 1988 856 C 1993 883 2021 899 2057 895 C 2069 894 2077 897 2074 901 C 2071 906 2077 910 2086 910 C 2096 910 2100 907 2097 903 Z M 1348 884 C 1376 876 1376 863 1349 855 C 1336 851 1321 855 1307 867 L 1285 885 L 1303 863 C 1314 851 1319 836 1315 831 C 1308 818 1278 817 1264 828 C 1259 832 1263 828 1272 818 C 1295 797 1295 793 1269 780 C 1242 765 1220 783 1220 821 C 1220 850 1245 884 1260 875 C 1265 872 1271 874 1275 880 C 1282 891 1313 893 1348 884 Z M 1973 784 C 2038 751 2091 705 2107 668 C 2114 653 2117 640 2115 640 C 2113 640 2105 637 2096 634 C 2087 631 2080 633 2080 639 C 2080 655 2038 700 2023 700 C 2016 700 2010 707 2010 716 C 2010 724 2006 728 2000 725 C 1995 722 1990 724 1990 731 C 1990 738 1987 740 1983 737 C 1980 733 1971 735 1963 741 C 1956 748 1937 755 1921 759 C 1896 764 1894 768 1901 788 C 1911 815 1910 816 1973 784 Z M 1937 710 C 1939 710 1940 705 1940 699 C 1940 693 1934 690 1927 693 C 1919 696 1907 694 1899 689 C 1890 683 1898 682 1923 685 C 1945 687 1958 685 1955 680 C 1952 674 1956 673 1964 676 C 1972 679 1988 676 2001 670 C 2018 660 2020 656 2009 649 C 1998 642 1999 640 2014 640 C 2037 640 2090 593 2090 573 C 2090 563 2085 562 2071 570 C 2033 590 2011 579 1926 505 C 1823 416 1807 407 1770 415 C 1741 421 1741 423 1754 448 C 1762 463 1781 516 1798 565 C 1838 683 1855 722 1863 713 C 1867 710 1870 712 1870 718 C 1870 725 1880 726 1902 719 C 1920 714 1936 710 1937 710 Z M 2121 623 C 2121 618 2123 608 2125 599 C 2126 590 2124 576 2119 569 C 2113 559 2110 563 2110 583 C 2110 598 2105 610 2099 610 C 2094 610 2092 615 2095 620 C 2102 632 2120 633 2121 623 Z M 2074 544 C 2094 524 2094 514 2074 506 C 2048 496 2025 499 2004 515 C 1985 530 1985 530 2004 545 C 2029 564 2055 564 2074 544 Z"/>
    <path d="M1670 1094 c0 -16 -2 -17 -10 -4 -6 9 -10 10 -10 3 0 -6 -3 -19 -7 -29 -5 -13 -3 -15 7 -9 10 6 11 2 6 -21 -4 -16 -14 -66 -21 -111 -7 -45 -16 -87 -20 -93 -3 -5 -2 -10 4 -10 5 0 14 24 20 53 28 145 42 230 37 235 -4 3 -6 -3 -6 -14z"/>
    <path d="M1620 1033 c0 -38 -9 -111 -20 -163 -10 -52 -18 -96 -16 -97 2 -2 11 27 21 64 17 68 33 263 21 263 -3 0 -6 -30 -6 -67z"/>
    <path d="M1599 1063 c-3 -16 -1 -44 2 -63 5 -28 7 -23 8 28 1 65 -4 82 -10 35z"/>
    <path d="M1561 788 c-6 -34 -8 -64 -6 -67 3 -2 5 3 5 12 0 10 3 17 8 17 4 0 8 23 9 50 1 28 0 50 -2 50 -1 0 -8 -28 -14 -62z"/>
    <path d="M1561 487 c-1 -10 -5 -16 -10 -13 -12 8 -22 -20 -14 -40 4 -12 9 -8 20 17 7 18 11 37 9 43 -2 6 -5 3 -5 -7z"/>
    <path d="M1785 743 c3 -11 0 -42 -6 -68 -9 -34 -9 -49 0 -58 8 -8 11 -5 11 11 0 13 7 38 14 57 8 19 11 35 7 35 -4 0 -13 10 -20 23 -11 21 -11 21 -6 0z"/>
    <path d="M1755 625 c4 -16 3 -27 -1 -23 -4 5 -24 -36 -44 -90 -52 -133 -55 -147 -21 -74 17 35 36 80 42 102 7 21 18 41 25 44 9 3 11 -1 8 -12 -5 -16 -5 -16 5 0 8 12 7 25 -5 50 -15 33 -15 33 -9 3z"/>
    <path d="M1740 515 c-7 -22 -21 -57 -32 -77 -10 -21 -16 -38 -13 -38 10 0 66 131 62 143 -2 7 -10 -6 -17 -28z"/>
    <path d="M1856 665 c-9 -9 -22 -37 -30 -63 -7 -26 -24 -71 -35 -101 -12 -29 -20 -55 -18 -58 6 -5 54 106 67 157 7 25 19 53 27 63 20 21 10 23 -11 2z"/>
    <path d="M1965 589 c-19 -17 -35 -37 -35 -45 0 -14 44 24 47 41 1 6 14 15 30 22 17 7 21 12 11 13 -10 0 -33 -14 -53 -31z"/>
    <path d="M1840 473 c-30 -29 -50 -53 -44 -53 6 0 23 13 39 30 16 16 31 28 34 25 7 -8 51 37 45 46 -8 14 -15 9 -74 -48z"/>
  </g>
</svg>