<?xml version="1.0" encoding="utf-8"?>
<svg xmlns="http://www.w3.org/2000/svg" viewBox="3.3821 3.9334 118.8977 91.342" width="118.8977pt" height="91.342pt"><path d="M 1034.88 2807.17 C 1020.02 2813.17 605.363 2999.94 294.603 2870.85 C 286.133 2867.33 235.743 2817.71 208.743 2799.71 C 181.743 2782.71 159.093 2747.31 131.633 2722.82 C 94.633 2689.82 26.593 2486.08 74.633 2469.82 C 72.915 2461.71 128.994 2419.34 182.633 2424.82 C 197.555 2426.35 229.633 2446.82 270.633 2484.82 C 305.633 2517.82 339.633 2544.82 346.633 2544.82 C 382.633 2544.82 405.633 2375.82 371.633 2354.82 C 347.633 2338.82 361.633 2332.82 351.633 2319.82 C 340.633 2306.82 333.633 2283.82 324.633 2273.82 C 314.633 2263.82 304.803 2236.36 313.803 2222.36 C 322.803 2208.36 344.603 2209.85 339.603 2228.85 C 335.603 2244.85 341.633 2273.82 366.633 2316.82 C 386.633 2351.82 399.633 2369.82 396.633 2357.82 C 393.633 2344.82 395.633 2326.82 401.633 2317.82 C 411.633 2301.82 412.633 2301.82 408.633 2321.82 C 405.633 2333.82 406.633 2344.82 411.633 2346.82 C 422.633 2350.82 430.633 2433.82 420.633 2439.82 C 416.633 2442.82 414.633 2451.82 418.633 2459.82 C 421.633 2467.82 418.633 2474.82 412.633 2474.82 C 406.633 2474.82 404.633 2480.82 407.633 2488.82 C 410.633 2495.82 406.633 2508.82 398.633 2515.82 C 384.633 2530.82 381.633 2536.82 381.633 2555.82 C 381.633 2561.82 375.633 2564.82 368.633 2561.82 C 360.633 2558.82 348.633 2560.82 340.633 2566.82 C 329.633 2574.82 329.633 2575.82 343.633 2570.82 C 353.633 2567.82 363.633 2569.82 365.633 2573.82 C 374.633 2586.82 315.633 2661.82 292.633 2667.82 C 277.633 2671.82 283.633 2661.82 313.633 2634.82 C 337.633 2613.82 352.633 2592.82 348.633 2588.82 C 344.633 2583.82 327.633 2594.82 310.633 2612.82 C 292.633 2631.82 271.633 2643.82 258.633 2643.82 L 236.633 2641.82 L 258.633 2637.82 C 270.633 2635.82 285.633 2627.82 291.633 2619.82 C 300.633 2608.82 294.633 2606.82 259.633 2610.82 L 216.633 2613.82 L 256.633 2605.82 C 278.633 2600.82 298.633 2597.82 301.633 2599.82 C 304.633 2601.82 312.633 2595.82 320.633 2587.82 C 332.633 2574.82 331.633 2572.82 315.633 2577.82 C 305.633 2580.82 275.633 2586.82 249.633 2590.82 L 201.633 2596.82 L 217.633 2623.82 C 226.633 2637.82 250.633 2669.82 270.633 2692.82 C 305.633 2732.82 310.633 2735.82 329.633 2723.82 C 356.633 2706.82 404.633 2619.82 399.633 2596.82 C 396.633 2585.82 388.633 2594.82 374.633 2624.82 C 361.633 2653.82 342.633 2676.82 320.633 2687.82 L 286.633 2706.82 L 319.633 2679.82 C 338.633 2663.82 365.633 2623.82 383.633 2583.82 C 401.633 2546.82 419.633 2518.82 425.633 2521.82 C 430.633 2525.82 432.633 2521.82 428.633 2512.82 C 425.633 2503.82 429.633 2479.82 437.633 2458.82 L 452.633 2419.82 L 445.633 2469.82 C 441.633 2497.82 437.633 2542.82 437.633 2571.82 C 436.633 2599.82 432.633 2626.82 427.633 2631.82 C 423.633 2635.82 422.633 2622.82 426.633 2602.82 C 430.633 2582.82 429.633 2559.82 424.633 2550.82 C 419.633 2540.82 415.633 2549.82 414.633 2579.82 C 413.633 2602.82 405.633 2636.82 397.633 2652.82 C 375.633 2694.82 377.633 2705.82 400.633 2671.82 C 413.633 2651.82 420.633 2646.82 424.633 2656.82 C 427.633 2664.82 434.633 2658.82 442.633 2639.82 C 463.633 2590.82 458.633 2354.82 434.633 2279.82 C 423.633 2246.82 409.633 2220.82 403.633 2221.82 C 396.633 2223.82 394.633 2217.82 398.633 2207.82 C 403.633 2195.82 401.633 2193.82 391.633 2199.82 C 382.633 2204.82 380.633 2203.82 385.633 2196.82 C 389.633 2189.82 388.633 2184.82 383.633 2184.82 C 377.633 2184.82 370.633 2167.82 365.633 2147.82 C 359.633 2119.82 356.633 2115.82 354.633 2130.82 C 352.633 2142.82 362.633 2180.82 376.633 2214.82 C 390.633 2248.82 401.633 2280.82 399.633 2285.82 C 397.633 2290.82 385.633 2267.82 372.633 2234.82 C 359.633 2201.82 345.633 2174.82 341.633 2174.82 C 337.633 2174.82 329.633 2189.82 323.633 2207.82 C 314.633 2237.82 313.633 2238.82 312.633 2213.82 C 311.633 2179.82 337.633 2105.82 358.633 2082.82 C 393.633 2043.82 481.633 2001.82 527.633 2002.82 C 573.633 2003.82 631.633 2028.82 668.633 2063.82 C 683.633 2078.82 703.633 2084.82 733.633 2084.82 C 779.633 2084.82 828.633 2110.82 888.633 2167.82 C 915.633 2192.82 923.633 2195.82 936.633 2184.82 C 944.633 2177.82 972.633 2168.82 997.633 2163.82 C 1061.63 2151.82 1095.63 2175.82 1110.63 2243.82 C 1134.63 2355.82 1057.63 2462.82 928.633 2495.82 C 902.633 2501.82 881.633 2509.82 881.633 2513.82 C 881.633 2516.82 895.633 2527.82 911.633 2536.82 C 936.633 2550.82 941.633 2551.82 941.633 2539.82 C 941.633 2531.82 936.633 2524.82 929.633 2524.82 C 907.633 2524.82 929.633 2513.82 982.633 2499.82 C 1012.63 2491.82 1072.63 2481.82 1116.63 2478.82 C 1224.63 2470.82 1247.04 2485.76 1247.04 2574.76 L 1226.23 2635.31 L 1182.63 2688.82 C 1153.63 2718.82 1117.44 2752.71 1100.09 2763.79 C 1075.17 2779.71 1049.75 2801.17 1034.88 2807.17 Z M 751.633 2876.82 C 771.633 2867.82 775.633 2843.82 756.633 2850.82 C 748.633 2854.82 741.633 2860.82 741.633 2865.82 C 741.633 2869.82 726.633 2871.82 708.633 2869.82 C 691.633 2867.82 669.633 2869.82 661.633 2874.82 C 643.633 2885.82 727.633 2887.82 751.633 2876.82 Z M 461.633 2864.82 C 461.633 2859.82 457.633 2854.82 451.633 2854.82 C 433.633 2854.82 426.633 2851.82 389.633 2828.82 C 368.633 2815.82 349.633 2804.82 345.633 2804.82 C 342.633 2804.82 324.633 2787.82 305.633 2767.82 C 287.633 2746.82 271.633 2734.82 271.633 2741.82 C 271.633 2747.82 277.633 2754.82 284.633 2757.82 C 290.633 2759.82 292.633 2765.82 288.633 2770.82 C 277.633 2781.82 242.633 2734.82 248.633 2717.82 C 251.633 2710.82 248.633 2704.82 241.633 2704.82 C 235.633 2704.82 233.633 2700.82 236.633 2694.82 C 239.633 2689.82 236.633 2684.82 227.633 2684.82 C 219.633 2684.82 211.633 2687.82 208.633 2692.82 C 206.633 2696.82 206.633 2693.82 208.633 2685.82 C 213.633 2665.82 182.633 2573.82 161.633 2549.82 C 136.633 2520.82 125.633 2499.82 139.633 2508.82 C 147.633 2513.82 151.633 2508.82 151.633 2496.82 C 151.633 2466.82 129.633 2464.82 97.633 2489.82 C 76.633 2506.82 84.983 2514.88 85.983 2537.88 C 86.983 2576.88 100.633 2650.82 136.633 2692.82 C 162.633 2723.82 281.633 2814.82 296.633 2814.82 C 300.633 2814.82 315.633 2822.82 329.633 2833.82 C 370.633 2861.82 461.633 2883.82 461.633 2864.82 Z M 857.633 2837.82 C 870.633 2820.82 871.633 2820.82 864.633 2838.82 C 861.633 2849.82 862.633 2855.82 867.633 2852.82 C 872.633 2849.82 911.633 2831.82 953.633 2811.82 C 1068.63 2757.82 1194.63 2663.82 1204.63 2623.82 C 1207.63 2612.82 1203.63 2600.82 1193.63 2594.82 C 1181.63 2587.82 1180.63 2585.82 1190.63 2584.82 C 1200.63 2584.82 1201.63 2581.82 1192.63 2571.82 C 1186.63 2563.82 1185.63 2553.82 1189.63 2548.82 C 1193.63 2544.82 1188.63 2546.82 1179.63 2553.82 C 1169.63 2560.82 1161.63 2571.82 1161.63 2577.82 C 1161.63 2582.82 1152.63 2595.82 1140.63 2605.82 C 1129.63 2615.82 1119.63 2629.82 1117.63 2636.82 C 1114.63 2658.82 1100.63 2675.82 1090.63 2669.82 C 1085.63 2665.82 1081.63 2668.82 1081.63 2674.82 C 1081.63 2680.82 1077.63 2683.82 1072.63 2680.82 C 1067.63 2677.82 1057.63 2682.82 1050.63 2692.82 C 1037.63 2708.82 1037.63 2708.82 1056.63 2694.82 C 1075.63 2680.82 1075.63 2680.82 1062.63 2697.82 C 1054.63 2707.82 1042.63 2713.82 1034.63 2710.82 C 1026.63 2707.82 1022.63 2708.82 1024.63 2712.82 C 1027.63 2716.82 1019.63 2728.82 1008.63 2739.82 C 997.633 2750.82 991.633 2753.82 995.633 2747.82 C 1006.63 2727.82 997.633 2732.82 967.633 2759.82 C 952.633 2773.82 943.633 2789.82 946.633 2794.82 C 949.633 2800.82 945.633 2804.82 937.633 2804.82 C 928.633 2804.82 921.633 2799.82 921.633 2793.82 C 921.633 2785.82 917.633 2784.82 908.633 2793.82 C 900.633 2799.82 891.633 2800.82 887.633 2796.82 C 883.633 2792.82 881.633 2796.82 883.633 2804.82 C 885.633 2812.82 880.633 2819.82 874.633 2820.82 C 867.633 2821.82 857.633 2822.82 852.633 2823.82 C 842.633 2824.82 828.633 2854.82 838.633 2854.82 C 841.633 2854.82 850.633 2846.82 857.633 2837.82 Z M 570.633 2812.82 C 571.633 2841.82 574.633 2844.82 601.633 2844.82 C 624.633 2844.82 629.633 2840.82 625.633 2827.82 C 620.633 2811.82 621.633 2811.82 630.633 2825.82 C 637.633 2835.82 649.633 2840.82 665.633 2837.82 C 687.633 2832.82 689.633 2829.82 680.633 2805.82 C 671.633 2781.82 672.633 2780.82 686.633 2798.82 C 694.633 2809.82 701.633 2821.82 701.633 2826.82 C 701.633 2830.82 708.633 2831.82 716.633 2828.82 C 729.633 2823.82 729.633 2819.82 719.633 2805.82 C 710.633 2793.82 712.633 2794.82 728.633 2807.82 C 742.633 2819.82 751.633 2822.82 756.633 2815.82 C 759.633 2809.82 757.633 2804.82 750.633 2804.82 C 743.633 2804.82 741.633 2801.82 744.633 2798.82 C 748.633 2794.82 758.633 2797.82 768.633 2805.82 C 783.633 2817.82 784.633 2817.82 778.633 2802.82 C 775.633 2792.82 776.633 2784.82 780.633 2784.82 C 785.633 2784.82 791.633 2789.82 793.633 2794.82 C 796.633 2804.82 881.633 2775.82 881.633 2764.82 C 880.633 2761.82 859.633 2744.82 833.633 2725.82 C 797.633 2699.82 791.633 2697.82 807.633 2715.82 C 839.633 2751.82 848.633 2772.82 823.633 2750.82 C 800.633 2730.82 754.633 2659.82 771.633 2669.82 C 776.633 2672.82 781.633 2673.82 781.633 2669.82 C 781.633 2661.82 730.633 2560.82 722.633 2554.82 C 713.633 2547.82 708.633 2524.82 708.633 2487.82 C 707.633 2469.82 705.633 2457.82 702.633 2460.82 C 699.633 2462.82 676.633 2392.82 649.633 2305.82 C 623.633 2217.82 592.633 2124.82 580.633 2099.82 C 558.633 2051.82 507.633 2006.82 496.633 2024.82 C 488.633 2037.82 500.633 2056.82 511.633 2049.82 C 516.633 2046.82 527.633 2057.82 536.633 2075.82 C 547.633 2095.82 548.633 2103.82 540.633 2098.82 C 531.633 2093.82 530.633 2096.82 535.633 2110.82 C 552.633 2151.82 572.633 2226.82 568.633 2231.82 C 565.633 2233.82 553.633 2204.82 542.633 2167.82 C 530.633 2130.82 517.633 2093.82 514.633 2085.82 C 511.633 2077.82 513.633 2074.82 520.633 2078.82 C 527.633 2083.82 529.633 2079.82 524.633 2068.82 C 519.633 2054.82 516.633 2055.82 505.633 2075.82 C 497.633 2090.82 492.633 2093.82 491.633 2084.82 C 491.633 2071.82 490.633 2071.82 481.633 2084.82 C 468.633 2104.82 468.633 2088.82 481.633 2064.82 C 493.633 2042.82 482.633 2031.82 461.633 2044.82 C 450.633 2051.82 451.633 2062.82 468.633 2111.82 C 480.633 2143.82 499.633 2210.82 511.633 2259.82 C 523.633 2309.82 539.633 2364.82 547.633 2382.82 C 554.633 2399.82 556.633 2414.82 552.633 2414.82 C 544.633 2414.82 491.633 2250.82 491.633 2228.82 C 491.633 2222.82 478.633 2177.82 462.633 2128.82 C 440.633 2063.82 430.633 2044.82 425.633 2058.82 C 421.633 2069.82 429.633 2105.82 448.633 2153.82 C 475.633 2219.82 493.633 2286.82 507.633 2374.82 C 511.633 2397.82 510.633 2397.82 501.633 2379.82 C 493.633 2364.82 492.633 2370.82 497.633 2404.82 C 501.633 2439.82 510.633 2600.82 521.633 2828.82 C 521.633 2832.82 528.633 2834.82 536.633 2830.82 C 544.633 2827.82 552.633 2830.82 552.633 2837.82 C 553.633 2844.82 557.633 2833.82 561.633 2814.82 L 568.633 2779.82 L 570.633 2812.82 Z M 510.633 2802.82 C 509.633 2784.82 506.633 2758.82 502.633 2744.82 C 495.633 2721.82 494.633 2722.82 487.633 2757.82 C 483.633 2778.82 476.633 2792.82 472.633 2789.82 C 467.633 2786.82 472.633 2757.82 482.633 2723.82 C 500.633 2665.82 509.633 2525.82 495.633 2511.82 C 491.633 2508.82 487.633 2458.82 486.633 2402.82 C 482.633 2290.82 470.633 2220.82 444.633 2170.82 C 435.633 2153.82 422.633 2121.82 415.633 2099.82 C 404.633 2065.82 402.633 2063.82 402.633 2086.82 C 401.633 2100.82 415.633 2146.82 431.633 2188.82 C 448.633 2229.82 464.633 2278.82 467.633 2296.82 C 473.633 2330.82 419.633 2192.82 397.633 2115.82 C 386.633 2075.82 384.633 2073.82 378.633 2095.82 C 373.633 2112.82 382.633 2140.82 406.633 2190.82 C 485.633 2349.82 494.633 2589.82 426.633 2689.82 C 400.633 2729.82 393.633 2750.82 412.633 2738.82 C 420.633 2734.82 419.633 2738.82 411.633 2753.82 C 405.633 2765.82 402.633 2783.82 404.633 2792.82 C 407.633 2807.82 409.633 2806.82 415.633 2789.82 C 419.633 2778.82 431.633 2751.82 443.633 2729.82 C 455.633 2708.82 470.633 2654.82 477.633 2609.82 L 491.633 2529.82 L 485.633 2608.82 C 481.633 2667.82 474.633 2698.82 455.633 2729.82 C 429.633 2774.82 424.633 2800.82 443.633 2788.82 C 450.633 2784.82 451.633 2785.82 447.633 2793.82 C 443.633 2799.82 435.633 2802.82 430.633 2799.82 C 425.633 2795.82 421.633 2797.82 421.633 2802.82 C 421.633 2817.82 454.633 2826.82 461.633 2814.82 C 466.633 2806.82 470.633 2808.82 474.633 2818.82 C 486.633 2848.82 511.633 2836.82 510.633 2802.82 Z M 391.633 2785.82 C 391.633 2780.82 394.633 2767.82 398.633 2757.82 C 404.633 2741.82 402.633 2741.82 381.633 2759.82 C 356.633 2780.82 359.633 2772.82 398.633 2715.82 C 429.633 2670.82 427.633 2656.82 395.633 2691.82 C 381.633 2706.82 373.633 2712.82 377.633 2704.82 C 382.633 2696.82 371.633 2700.82 354.633 2714.82 L 323.633 2739.82 L 349.633 2767.82 C 375.633 2794.82 391.633 2801.82 391.633 2785.82 Z M 914.633 2740.82 C 915.633 2735.82 903.633 2726.82 886.633 2721.82 C 842.633 2707.82 831.633 2696.82 804.633 2634.82 C 790.633 2604.82 768.633 2564.82 754.633 2546.82 C 741.633 2529.82 733.633 2509.82 737.633 2502.82 C 741.633 2495.82 740.633 2494.82 733.633 2498.82 C 726.633 2502.82 721.633 2499.82 721.633 2489.82 C 721.633 2465.82 736.633 2479.82 761.633 2526.82 C 773.633 2550.82 796.633 2588.82 812.633 2612.82 C 827.633 2635.82 838.633 2660.82 835.633 2668.82 C 832.633 2676.82 838.633 2687.82 850.633 2693.82 C 882.633 2710.82 888.633 2705.82 861.633 2684.82 C 847.633 2673.82 842.633 2664.82 850.633 2664.82 C 861.633 2664.82 861.633 2661.82 851.633 2649.82 C 845.633 2641.82 842.633 2631.82 845.633 2626.82 C 848.633 2621.82 841.633 2605.82 828.633 2592.82 C 801.633 2562.82 786.633 2539.82 765.633 2498.82 C 752.633 2474.82 751.633 2462.82 760.633 2448.82 C 770.633 2432.82 771.633 2433.82 766.633 2459.82 L 761.633 2489.82 L 773.633 2462.82 C 786.633 2432.82 801.633 2425.82 801.633 2448.82 C 801.633 2456.82 810.633 2479.82 822.633 2498.82 C 834.633 2518.82 840.633 2534.82 837.633 2534.82 C 821.633 2534.82 919.633 2611.82 955.633 2627.82 C 988.633 2641.82 990.633 2644.82 966.633 2639.82 C 950.633 2636.82 924.633 2624.82 909.633 2614.82 C 875.633 2589.82 863.633 2588.82 884.633 2612.82 C 894.633 2622.82 898.633 2634.82 894.633 2639.82 C 889.633 2643.82 891.633 2644.82 897.633 2641.82 C 912.633 2632.82 977.633 2659.82 963.633 2668.82 C 957.633 2671.82 932.633 2665.82 907.633 2654.82 C 882.633 2644.82 861.633 2639.82 861.633 2645.82 C 861.633 2650.82 873.633 2659.82 889.633 2665.82 C 941.633 2686.82 961.633 2697.82 956.633 2702.82 C 954.633 2705.82 946.633 2702.82 939.633 2697.82 C 932.633 2691.82 913.633 2684.82 896.633 2680.82 L 866.633 2673.82 L 900.633 2703.82 C 919.633 2720.82 938.633 2734.82 941.633 2734.82 C 945.633 2734.82 961.633 2721.82 977.633 2704.82 C 993.633 2688.82 1012.63 2674.82 1020.63 2674.82 C 1027.63 2674.82 1044.63 2663.82 1057.63 2649.82 C 1070.63 2635.82 1085.63 2624.82 1091.63 2624.82 C 1100.63 2624.82 1105.63 2610.82 1102.63 2592.82 C 1102.63 2588.82 1107.63 2587.82 1115.63 2590.82 C 1133.63 2597.82 1148.63 2576.82 1156.63 2532.82 C 1166.63 2481.82 1150.63 2484.82 1123.63 2537.82 C 1111.63 2560.82 1101.63 2575.82 1101.63 2570.82 C 1101.63 2565.82 1094.63 2567.82 1086.63 2574.82 C 1078.63 2581.82 1074.63 2590.82 1077.63 2595.82 C 1089.63 2615.82 993.633 2603.82 946.633 2579.82 C 889.633 2550.82 876.633 2552.82 923.633 2583.82 C 941.633 2594.82 952.633 2604.82 948.633 2604.82 C 934.633 2604.82 879.633 2562.82 885.633 2557.82 C 888.633 2554.82 878.633 2535.82 862.633 2515.82 C 820.633 2461.82 792.633 2402.82 750.633 2272.82 C 729.633 2207.82 705.633 2141.82 696.633 2125.82 C 682.633 2097.82 621.633 2045.82 621.633 2060.82 C 621.633 2064.82 612.633 2058.82 600.633 2045.82 C 588.633 2033.82 576.633 2025.82 573.633 2029.82 C 569.633 2032.82 572.633 2039.82 579.633 2043.82 C 586.633 2047.82 591.633 2055.82 589.633 2060.82 C 588.633 2065.82 603.633 2121.82 624.633 2184.82 C 644.633 2247.82 668.633 2325.82 677.633 2357.82 C 703.633 2451.82 703.633 2417.82 676.633 2313.82 C 650.633 2210.82 623.633 2125.82 611.633 2109.82 C 601.633 2094.82 591.633 2064.82 597.633 2064.82 C 621.633 2064.82 709.633 2361.82 716.633 2464.82 C 718.633 2502.82 731.633 2542.82 755.633 2592.82 C 775.633 2632.82 788.633 2671.82 785.633 2677.82 C 781.633 2684.82 781.633 2686.82 786.633 2682.82 C 790.633 2678.82 814.633 2693.82 839.633 2715.82 C 882.633 2752.82 909.633 2761.82 914.633 2740.82 Z M 878.633 2617.82 C 870.633 2607.82 862.633 2595.82 860.633 2589.82 C 855.633 2561.82 848.633 2552.82 841.633 2564.82 C 836.633 2573.82 831.633 2569.82 826.633 2554.82 C 822.633 2541.82 812.633 2515.82 804.633 2495.82 C 792.633 2466.82 787.633 2463.82 780.633 2476.82 C 770.633 2494.82 779.633 2527.82 791.633 2519.82 C 796.633 2516.82 802.633 2522.82 806.633 2533.82 C 815.633 2562.82 870.633 2634.82 883.633 2634.82 C 890.633 2634.82 888.633 2627.82 878.633 2617.82 Z M 1058.63 2587.82 C 1054.63 2584.82 1067.63 2570.82 1085.63 2558.82 C 1118.63 2535.82 1139.63 2499.82 1127.63 2487.82 C 1124.63 2484.82 1115.63 2486.82 1108.63 2492.82 C 1100.63 2499.82 1091.63 2501.82 1088.63 2497.82 C 1084.63 2494.82 1081.63 2499.82 1081.63 2509.82 C 1081.63 2527.82 1080.63 2527.82 1066.63 2508.82 C 1052.63 2490.82 1052.63 2490.82 1050.63 2519.82 C 1049.63 2548.82 1049.63 2548.82 1042.63 2524.82 L 1035.63 2499.82 L 1024.63 2529.82 C 1018.63 2546.82 1012.63 2552.82 1012.63 2543.82 C 1011.63 2520.82 981.633 2510.82 980.633 2532.82 C 979.633 2548.82 978.633 2548.82 974.633 2532.82 C 967.633 2503.82 943.633 2510.82 949.633 2540.82 C 954.633 2567.82 982.633 2583.82 1018.63 2579.82 C 1030.63 2578.82 1038.63 2581.82 1035.63 2585.82 C 1032.63 2590.82 1038.63 2594.82 1047.63 2594.82 C 1057.63 2594.82 1061.63 2591.82 1058.63 2587.82 Z M 309.633 2568.82 C 337.633 2560.82 337.633 2547.82 310.633 2539.82 C 297.633 2535.82 282.633 2539.82 268.633 2551.82 L 246.633 2569.82 L 264.633 2547.82 C 275.633 2535.82 280.633 2520.82 276.633 2515.82 C 269.633 2502.82 239.633 2501.82 225.633 2512.82 C 220.633 2516.82 224.633 2512.82 233.633 2502.82 C 256.633 2481.82 256.633 2477.82 230.633 2464.82 C 203.633 2449.82 181.633 2467.82 181.633 2505.82 C 181.633 2534.82 206.633 2568.82 221.633 2559.82 C 226.633 2556.82 232.633 2558.82 236.633 2564.82 C 243.633 2575.82 274.633 2577.82 309.633 2568.82 Z M 934.633 2468.82 C 999.633 2435.82 1052.63 2389.82 1068.63 2352.82 C 1075.63 2337.82 1078.63 2324.82 1076.63 2324.82 C 1074.63 2324.82 1066.63 2321.82 1057.63 2318.82 C 1048.63 2315.82 1041.63 2317.82 1041.63 2323.82 C 1041.63 2339.82 999.633 2384.82 984.633 2384.82 C 977.633 2384.82 971.633 2391.82 971.633 2400.82 C 971.633 2408.82 967.633 2412.82 961.633 2409.82 C 956.633 2406.82 951.633 2408.82 951.633 2415.82 C 951.633 2422.82 948.633 2424.82 944.633 2421.82 C 941.633 2417.82 932.633 2419.82 924.633 2425.82 C 917.633 2432.82 898.633 2439.82 882.633 2443.82 C 857.633 2448.82 855.633 2452.82 862.633 2472.82 C 872.633 2499.82 871.633 2500.82 934.633 2468.82 Z M 898.633 2394.82 C 900.633 2394.82 901.633 2389.82 901.633 2383.82 C 901.633 2377.82 895.633 2374.82 888.633 2377.82 C 880.633 2380.82 868.633 2378.82 860.633 2373.82 C 851.633 2367.82 859.633 2366.82 884.633 2369.82 C 906.633 2371.82 919.633 2369.82 916.633 2364.82 C 913.633 2358.82 917.633 2357.82 925.633 2360.82 C 933.633 2363.82 949.633 2360.82 962.633 2354.82 C 979.633 2344.82 981.633 2340.82 970.633 2333.82 C 959.633 2326.82 960.633 2324.82 975.633 2324.82 C 998.633 2324.82 1051.63 2277.82 1051.63 2257.82 C 1051.63 2247.82 1046.63 2246.82 1032.63 2254.82 C 994.633 2274.82 972.633 2263.82 887.633 2189.82 C 784.633 2100.82 768.633 2091.82 731.633 2099.82 C 702.633 2105.82 702.633 2107.82 715.633 2132.82 C 723.633 2147.82 742.633 2200.82 759.633 2249.82 C 799.633 2367.82 816.633 2406.82 824.633 2397.82 C 828.633 2394.82 831.633 2396.82 831.633 2402.82 C 831.633 2409.82 841.633 2410.82 863.633 2403.82 C 881.633 2398.82 897.633 2394.82 898.633 2394.82 Z M 1082.63 2307.82 C 1082.63 2302.82 1084.63 2292.82 1086.63 2283.82 C 1087.63 2274.82 1085.63 2260.82 1080.63 2253.82 C 1074.63 2243.82 1071.63 2247.82 1071.63 2267.82 C 1071.63 2282.82 1066.63 2294.82 1060.63 2294.82 C 1055.63 2294.82 1053.63 2299.82 1056.63 2304.82 C 1063.63 2316.82 1081.63 2317.82 1082.63 2307.82 Z M 1035.63 2228.82 C 1055.63 2208.82 1055.63 2198.82 1035.63 2190.82 C 1009.63 2180.82 986.633 2183.82 965.633 2199.82 C 946.633 2214.82 946.633 2214.82 965.633 2229.82 C 990.633 2248.82 1016.63 2248.82 1035.63 2228.82 Z" id="object-0" transform="matrix(0.10000000149011612, 0, 0, -0.10000000149011612, -2.4242022037506104, 295.5556335449219)"/></svg>