<?xml version="1.0" encoding="utf-8"?>
<svg xmlns="http://www.w3.org/2000/svg" viewBox="23.1961 163.5058 122.5939 83.8287" width="122.5939pt" height="83.8287pt"><path d="M 1457.9 1227.27 C 1456.81 1290.31 1089.65 1367.44 1107.81 1364.88 C 1126.49 1362.26 932.634 1359.62 912.489 1356.04 C 900.633 1353.93 860.738 1355.88 836 1349 C 806.697 1346.54 579 1282.13 579 1282.13 C 579 1282.13 720 1316 720 1311 C 720 1302 630 1284 600 1287 C 592 1288 583 1285 580 1281 C 577 1277 546 1263 510 1251 C 347 1193 249 1099 234 988 C 226 930 242 890 274 890 C 287 890 304 898 311 907 C 319 916 343 936 364 952 C 412 987 479 990 566 960 C 633 936 700 877 782 767 C 810 730 835 702 838 704 C 841 707 849 705 857 699 C 865 692 870 691 870 698 C 870 709 838 738 834 730 C 833 727 828 729 823 734 C 818 739 821 740 829 735 C 838 730 841 731 839 739 C 836 746 832 750 829 748 C 820 743 790 771 790 783 C 790 789 797 785 805 774 C 813 764 820 758 820 762 C 820 772 763 869 733 908 C 719 926 710 944 713 947 C 720 953 773 882 812 812 C 828 784 846 763 851 766 C 862 772 863 790 853 789 C 833 786 827 791 840 800 C 853 808 852 810 838 810 C 828 810 820 815 820 821 C 820 826 825 828 830 825 C 836 822 840 823 840 827 C 840 845 763 983 730 1025 C 693 1071 628 1115 607 1107 C 601 1105 611 1096 631 1088 C 677 1068 751 982 790 903 C 808 867 820 837 817 834 C 815 832 796 858 774 892 C 726 971 650 1047 613 1055 C 598 1059 572 1067 555 1074 L 526 1087 L 589 1119 C 624 1136 655 1148 659 1144 C 662 1140 659 1135 653 1133 C 646 1130 640 1123 640 1118 C 640 1112 643 1110 647 1113 C 650 1117 660 1114 669 1107 C 683 1096 683 1097 671 1113 C 664 1122 662 1130 667 1130 C 677 1130 738 1052 770 998 C 782 977 797 963 803 967 C 810 971 811 967 807 956 C 802 945 804 941 812 946 C 820 951 821 947 816 934 C 811 920 812 918 821 927 C 829 936 826 952 806 995 C 792 1027 783 1057 787 1063 C 790 1069 788 1070 782 1066 C 771 1059 765 1073 770 1095 C 771 1101 769 1102 765 1098 C 761 1095 745 1106 728 1123 L 697 1155 L 722 1120 C 761 1064 800 994 800 980 C 800 972 784 993 764 1026 C 745 1058 715 1099 699 1115 C 683 1132 670 1149 670 1152 C 670 1164 709 1167 720 1156 C 728 1148 730 1149 725 1162 C 720 1174 723 1179 737 1178 C 747 1177 765 1180 777 1184 C 796 1190 803 1184 824 1143 C 838 1117 849 1102 849 1110 C 850 1118 841 1139 830 1155 C 804 1194 805 1196 839 1208 C 860 1215 871 1215 880 1207 C 890 1198 891 1198 886 1208 C 877 1224 902 1224 919 1208 C 929 1197 930 1198 925 1212 C 920 1226 923 1230 938 1230 C 949 1230 965 1233 973 1236 C 984 1240 990 1234 993 1218 C 997 1197 997 1197 999 1216 C 1001 1247 1057 1248 1063 1217 C 1067 1196 1067 1196 1069 1218 C 1070 1240 1073 1241 1133 1239 C 1223 1236 1227 1233 1189 1194 C 1172 1176 1149 1137 1139 1108 C 1124 1065 1121 1060 1120 1084 C 1120 1100 1117 1111 1114 1107 C 1111 1104 1111 1082 1115 1058 L 1123 1015 L 1140 1076 C 1156 1136 1181 1180 1216 1211 C 1233 1226 1239 1227 1283 1212 C 1309 1204 1330 1193 1330 1189 C 1330 1184 1339 1180 1350 1180 C 1361 1180 1370 1176 1370 1172 C 1370 1159 1320 1139 1308 1146 C 1302 1150 1299 1149 1302 1144 C 1306 1139 1286 1121 1259 1103 C 1232 1086 1210 1074 1210 1076 C 1210 1095 1253 1160 1269 1165 C 1279 1168 1291 1177 1294 1185 C 1301 1204 1295 1204 1266 1184 C 1249 1173 1240 1172 1235 1180 C 1220 1204 1148 1107 1151 1066 C 1151 1060 1156 1068 1162 1084 C 1170 1105 1175 1109 1181 1099 C 1188 1088 1190 1089 1190 1102 C 1190 1111 1195 1122 1200 1125 C 1224 1140 1197 1063 1170 1038 C 1133 1005 1080 902 1080 864 C 1080 817 1090 795 1113 785 C 1125 779 1145 756 1158 732 C 1172 708 1184 691 1187 694 C 1189 696 1184 710 1175 724 C 1154 756 1171 759 1194 727 C 1204 713 1208 711 1204 723 C 1199 736 1203 740 1221 740 C 1236 740 1268 762 1309 800 C 1344 833 1378 860 1385 860 C 1421 860 1444 691 1410 670 C 1386 654 1348 668 1313 705 C 1295 724 1280 736 1280 731 C 1280 714 1360 650 1381 650 C 1399 650 1400 648 1390 635 C 1379 622 1374 622 1348 638 C 1332 647 1303 672 1284 693 C 1265 713 1250 726 1250 720 C 1250 708 1328 629 1355 614 C 1371 604 1372 599 1363 589 C 1353 579 1347 580 1332 593 C 1322 602 1309 610 1303 610 C 1297 610 1276 628 1256 650 C 1217 693 1210 695 1236 654 C 1245 641 1271 618 1294 605 C 1320 589 1328 580 1317 580 C 1298 580 1240 610 1240 620 C 1240 623 1228 639 1214 655 L 1189 685 L 1207 651 C 1229 610 1279 570 1311 569 C 1324 568 1315 564 1290 559 C 1231 547 1210 562 1142 670 C 1114 716 1090 750 1090 746 C 1090 728 1154 620 1181 592 C 1216 556 1208 547 1140 545 C 1115 544 1101 545 1108 547 C 1114 550 1118 556 1115 561 C 1111 566 1102 565 1092 559 C 1079 551 1065 552 1036 564 C 1014 573 999 583 1003 586 C 1006 589 1018 586 1030 580 C 1042 574 1055 571 1058 575 C 1061 578 1054 583 1042 587 C 1030 590 1022 595 1024 599 C 1027 603 1013 625 995 649 C 976 673 958 701 954 712 C 951 723 946 729 943 727 C 936 720 965 668 996 631 C 1010 614 1017 600 1012 600 C 982 600 895 746 850 872 C 840 901 831 919 831 913 C 830 892 879 769 912 710 C 928 680 956 640 973 623 C 990 605 999 590 994 590 C 988 590 975 599 965 610 C 955 621 944 627 940 625 C 931 619 908 645 912 656 C 914 661 912 665 909 665 C 906 665 896 671 887 679 C 877 686 870 689 870 685 C 870 681 863 683 855 690 C 847 697 840 698 840 692 C 840 673 929 601 990 570 C 1084 523 1245 512 1332 548 C 1355 557 1380 589 1405 632 C 1425 667 1438 685 1435 673 C 1432 660 1454.54 789.135 1446.74 785.527 M 725 1303 C 728 1309 815 1291 776 1289 C 759 1288 758 1287 773 1283 C 783 1280 802 1286 816 1295 C 831 1304 860 1311 888 1310 C 914 1310 960 1314 990 1320 C 1020 1325 1065 1328 1090 1325 C 1115 1323 1160 1318 1191 1316 C 1260 1310 1283 1301 1276 1284 C 1273 1277 1276 1273 1284 1276 C 1290 1278 1313 1274 1334 1265 C 1367 1251 1370 1247 1358 1233 C 1348 1219 1347 1218 1358 1224 C 1366 1229 1377 1225 1385 1214 C 1407 1185 1403 1174 1379 1196 C 1367 1206 1355 1214 1351 1212 C 1348 1211 1338 1216 1330 1223 C 1322 1230 1307 1234 1298 1232 C 1275 1228 1275 1234 1298 1256 C 1314 1273 1314 1273 1295 1266 C 1263 1252 1223 1247 1238 1258 C 1247 1264 1234 1266 1201 1264 C 1173 1263 1148 1266 1144 1271 C 1141 1276 1135 1278 1130 1275 C 1125 1272 1093 1268 1058 1266 C 1023 1263 986 1259 975 1255 C 959 1249 958 1250 970 1259 C 978 1265 980 1270 974 1270 C 969 1270 959 1265 952 1258 C 945 1251 940 1250 940 1254 C 940 1259 933 1257 925 1250 C 912 1239 911 1240 917 1256 C 923 1273 922 1273 907 1262 C 898 1254 874 1244 853 1239 C 832 1233 811 1228 805 1226 C 800 1224 782 1220 765 1215 C 749 1211 729 1203 722 1197 C 715 1192 707 1190 704 1193 C 701 1196 656 1177 605 1150 C 553 1124 509 1104 506 1107 C 504 1110 495 1108 488 1104 C 481 1099 469 1095 462 1094 C 449 1092 435 1077 404 1033 C 395 1021 383 1013 375 1016 C 368 1019 359 1016 355 1011 C 352 1005 344 1003 338 1006 C 332 1010 330 1005 335 991 C 339 979 337 970 331 970 C 325 970 320 975 320 981 C 320 987 311 982 300 969 C 285 950 281 948 280 962 C 280 971 292 993 307 1011 C 331 1038 331 1041 312 1029 C 300 1021 290 1013 290 1010 C 290 1006 284 996 278 987 C 266 971 265 972 264 995 C 263 1009 266 1017 272 1014 C 277 1011 280 1016 278 1026 C 276 1038 281 1045 290 1044 C 300 1043 305 1052 305 1068 C 305 1096 336 1122 348 1103 C 353 1095 361 1095 380 1105 C 399 1116 401 1119 388 1120 C 361 1120 367 1149 395 1156 C 409 1159 420 1166 420 1171 C 420 1176 427 1180 435 1180 C 443 1180 450 1185 450 1190 C 450 1196 462 1200 476 1200 C 490 1200 499 1204 495 1210 C 492 1216 498 1220 509 1220 C 521 1220 530 1224 530 1229 C 530 1234 546 1241 565 1244 C 584 1248 612 1257 627 1265 C 658 1282 683 1285 660 1270 C 638 1255 663 1242 703 1248 C 720 1251 729 1255 723 1257 C 701 1265 709 1278 733 1273 C 752 1269 753 1270 738 1280 C 729 1286 723 1296 725 1303 M 1394.58 869.097 C 1360.44 873.272 1243.15 795.001 1231.49 792.159 C 1197.22 783.804 1168 780 1136 805 C 1115 822 1107 836 1108 859 C 1109 898 1139 966 1175 1008 C 1201 1039 1450.83 1152.34 1456.47 1190.87 C 1459.33 1210.43 1447.38 870.872 1447.01 800.907 M 1230 1145 C 1223 1137 1215 1132 1212 1135 C 1209 1138 1201 1135 1193 1129 C 1172 1111 1178 1132 1202 1157 C 1227 1183 1253 1172 1230 1145 M 548 1066 C 563 1059 591 1046 610 1037 C 675 1010 740 942 693 952 C 683 954 676 961 677 968 C 680 982 623 1026 590 1034 C 576 1038 586 1029 612 1015 C 638 1002 661 986 665 980 C 673 967 663 967 637 982 C 600 1003 547 1019 500 1024 L 455 1029 L 507 1016 C 536 1008 578 993 600 981 C 622 970 646 960 653 960 C 670 960 732 895 765 842 C 797 789 793 777 758 822 C 673 933 584 990 482 998 L 418 1003 L 446 1026 C 461 1039 479 1050 487 1050 C 495 1050 499 1054 496 1059 C 491 1067 500 1075 518 1079 C 520 1080 534 1074 548 1066" id="object-0" transform="matrix(0.10000000149011612, 0, 0, -0.10000000149011612, -5.684341886080802e-14, 300)"/></svg>